<?xml version="1.0" standalone="no"?>
<!DOCTYPE svg PUBLIC "-//W3C//DTD SVG 20010904//EN"
 "http://www.w3.org/TR/2001/REC-SVG-20010904/DTD/svg10.dtd">
<svg version="1.0" xmlns="http://www.w3.org/2000/svg"
 width="1117.000000pt" height="1117.000000pt" viewBox="0 0 1117.000000 1117.000000"
 preserveAspectRatio="xMidYMid meet">
<metadata>
Created by potrace 1.11, written by Peter Selinger 2001-2013
</metadata>
<g transform="translate(0.000000,1117.000000) scale(0.100000,-0.100000)"
fill="#000000" stroke="none">
<path d="M4749 11154 c-51 -15 -116 -72 -146 -126 -16 -30 -18 -71 -21 -460
l-3 -428 -122 0 c-419 -1 -449 -3 -502 -31 -56 -28 -109 -91 -125 -147 -6 -23
-10 -194 -10 -444 l0 -407 -292 -3 c-278 -3 -295 -4 -333 -25 -47 -25 -85 -64
-111 -113 -18 -32 -19 -68 -22 -462 l-3 -428 -379 0 c-347 0 -382 -2 -422 -19
-61 -26 -100 -61 -128 -117 l-24 -49 -1 -3840 c0 -3442 1 -3845 15 -3886 21
-62 55 -102 115 -136 l50 -28 3290 -1 c3676 -1 3343 -8 3421 73 82 84 74 -321
72 3983 l-3 3845 -22 40 c-28 52 -68 89 -123 114 -43 20 -64 21 -426 21 l-382
0 0 419 c-1 394 -2 423 -20 463 -23 51 -49 79 -105 116 l-42 27 -297 3 -296 3
0 417 c0 368 -1 422 -16 457 -21 50 -68 100 -121 128 -38 21 -54 22 -310 24
-148 1 -280 2 -291 3 l-22 0 1 404 c0 453 -2 469 -64 540 -75 85 -19 80 -929
82 -648 1 -814 -2 -851 -12z m1351 -909 c6 -478 3 -458 77 -530 67 -65 95 -70
405 -70 l278 0 0 -407 c0 -457 2 -472 68 -541 72 -76 80 -77 403 -77 l288 0 3
-427 c3 -420 3 -429 25 -469 30 -55 93 -109 148 -124 31 -9 154 -13 412 -14
l368 -1 1 -266 1 -266 -2991 0 -2991 0 2 251 c1 138 2 258 2 267 1 15 36 17
364 16 199 0 378 3 397 8 86 18 171 101 186 182 3 18 7 215 8 436 l1 402 276
1 c193 1 288 5 315 14 61 20 114 68 142 129 l25 54 -1 414 c0 227 3 414 6 414
4 1 133 2 287 3 272 2 282 2 325 25 63 32 95 65 120 124 21 49 22 62 22 461 0
226 1 413 3 416 2 3 232 5 512 5 l508 0 5 -430z m2476 -6717 l-1 -3033 -800 0
-800 0 -5 445 c-5 433 -6 446 -27 486 -30 56 -94 111 -145 125 -32 8 -357 11
-1219 11 l-1176 0 -50 -22 c-59 -25 -92 -57 -124 -120 -24 -45 -24 -46 -25
-480 -1 -239 -2 -437 -3 -440 0 -3 -362 -5 -802 -5 l-802 0 1 3015 c0 1658 1
3023 1 3033 1 16 150 17 2990 17 l2988 0 -1 -3032z m-3238 -2745 l-3 -288
-313 0 c-173 0 -316 4 -319 8 -4 7 -7 495 -4 555 1 9 72 12 321 12 l320 0 -2
-287z m1139 -1 l0 -287 -311 1 c-171 1 -316 2 -323 3 -9 1 -12 72 -12 286 l1
285 322 0 323 0 0 -288z"/>
<path d="M5379 8922 c-46 -14 -81 -39 -101 -71 -23 -36 -23 -37 -23 -476 0
-594 -32 -548 385 -548 306 1 317 3 362 65 l23 33 0 452 c0 443 0 452 -21 480
-12 15 -36 37 -54 47 -31 18 -55 20 -295 21 -144 0 -269 -1 -276 -3z"/>
<path d="M2877 6278 c-27 -7 -48 -23 -69 -52 -27 -37 -29 -47 -26 -100 4 -52
8 -63 40 -92 68 -62 163 -54 220 17 23 28 30 47 30 82 0 108 -89 174 -195 145z"/>
<path d="M3454 6274 c-63 -26 -100 -104 -82 -171 44 -165 288 -136 288 34 0
107 -108 178 -206 137z"/>
<path d="M4045 6276 c-38 -16 -84 -70 -87 -99 -6 -86 11 -123 72 -164 79 -54
198 -3 216 93 22 119 -93 216 -201 170z"/>
<path d="M4635 6276 c-41 -18 -83 -69 -91 -111 -12 -64 32 -143 93 -166 59
-22 143 5 179 58 28 42 24 132 -7 171 -40 50 -119 72 -174 48z"/>
<path d="M5220 6275 c-96 -44 -119 -163 -46 -238 95 -98 259 -25 252 111 -5
100 -115 167 -206 127z"/>
<path d="M5805 6273 c-95 -50 -114 -169 -39 -240 77 -73 206 -44 239 54 22 65
5 127 -47 167 -43 32 -112 41 -153 19z"/>
<path d="M6388 6271 c-122 -65 -96 -252 39 -277 115 -22 210 97 163 204 -34
75 -131 110 -202 73z"/>
<path d="M6985 6275 c-119 -50 -117 -225 2 -271 132 -51 250 83 184 206 -33
62 -121 93 -186 65z"/>
<path d="M7552 6269 c-53 -27 -85 -84 -78 -144 2 -24 11 -53 18 -64 66 -94
208 -90 257 7 66 129 -67 265 -197 201z"/>
<path d="M8169 6281 c-66 -21 -109 -76 -109 -141 0 -113 131 -189 219 -128 55
37 75 71 74 128 0 98 -93 169 -184 141z"/>
<path d="M3147 5679 c-48 -25 -77 -84 -72 -145 4 -54 29 -88 82 -115 62 -30
121 -19 168 32 19 22 36 42 36 47 14 85 -9 146 -69 180 -49 27 -95 28 -145 1z"/>
<path d="M3765 5693 c-85 -22 -130 -131 -86 -213 69 -131 272 -81 274 68 2
101 -87 170 -188 145z"/>
<path d="M4327 5679 c-78 -41 -101 -139 -51 -212 62 -91 200 -82 251 16 39 77
6 169 -74 203 -44 19 -81 17 -126 -7z"/>
<path d="M4925 5686 c-90 -40 -116 -163 -50 -236 61 -68 178 -59 229 17 83
122 -45 279 -179 219z"/>
<path d="M5505 5681 c-44 -27 -66 -55 -75 -95 -19 -86 37 -168 123 -181 122
-19 212 124 143 226 -44 65 -131 88 -191 50z"/>
<path d="M6105 5686 c-46 -23 -63 -40 -80 -79 -27 -66 -6 -133 59 -181 39 -29
122 -27 164 4 33 25 62 84 62 126 0 38 -28 91 -60 114 -38 27 -107 34 -145 16z"/>
<path d="M6690 5687 c-118 -55 -115 -227 4 -272 172 -66 286 174 126 264 -41
23 -91 26 -130 8z"/>
<path d="M7295 5693 c-115 -30 -141 -195 -42 -265 42 -30 125 -31 163 -2 49
36 66 67 67 123 1 101 -88 169 -188 144z"/>
<path d="M7854 5686 c-85 -37 -114 -150 -59 -222 34 -44 77 -64 132 -59 78 6
133 67 133 146 0 106 -109 177 -206 135z"/>
<path d="M4375 5288 c-58 -21 -111 -66 -140 -120 l-30 -53 1 -1475 c0 -1438 0
-1476 19 -1515 29 -59 62 -92 121 -120 l53 -25 1188 0 c1174 0 1189 1 1233 21
55 25 95 62 123 114 l22 40 0 1485 0 1485 -22 40 c-25 47 -64 85 -113 111 -34
18 -85 19 -1230 21 -827 1 -1204 -2 -1225 -9z m965 -1648 l0 -1167 -320 0
c-230 0 -320 3 -321 11 -1 15 -1 2275 0 2302 1 21 3 21 321 21 l320 0 0 -1167z
m1137 0 l0 -1166 -323 -1 -322 0 0 1161 c0 638 2 1164 4 1167 2 3 147 6 322 6
l319 0 0 -1167z"/>
<path d="M2855 5091 c-51 -31 -68 -58 -72 -114 -9 -119 97 -195 205 -147 142
64 92 280 -65 280 -21 0 -51 -8 -68 -19z"/>
<path d="M3450 5094 c-109 -45 -111 -205 -2 -260 133 -68 271 84 189 207 -41
63 -115 83 -187 53z"/>
<path d="M7554 5096 c-97 -43 -109 -194 -19 -254 45 -31 124 -34 162 -6 43 33
64 67 68 115 9 113 -105 191 -211 145z"/>
<path d="M8144 5096 c-50 -23 -79 -72 -79 -136 0 -80 48 -135 126 -144 151
-16 224 177 102 268 -33 24 -109 31 -149 12z"/>
<path d="M3200 4520 c-71 -13 -117 -59 -126 -126 -13 -103 73 -182 179 -164
72 13 127 98 113 175 -13 70 -97 128 -166 115z"/>
<path d="M7295 4518 c-22 -5 -54 -22 -72 -40 -95 -92 -28 -252 103 -250 86 1
144 63 144 154 0 89 -86 155 -175 136z"/>
<path d="M3732 4500 c-111 -68 -86 -234 41 -268 126 -35 227 104 160 221 -37
63 -136 87 -201 47z"/>
<path d="M7843 4504 c-111 -55 -98 -228 20 -268 61 -21 115 -6 158 43 45 50
52 95 26 155 -32 75 -127 108 -204 70z"/>
<path d="M2900 3930 c-133 -24 -167 -203 -51 -268 103 -58 223 8 223 123 0 74
-43 126 -122 147 -8 2 -31 2 -50 -2z"/>
<path d="M3468 3925 c-90 -31 -129 -134 -81 -215 40 -67 131 -89 202 -50 151
86 44 322 -121 265z"/>
<path d="M7580 3928 c-90 -25 -135 -126 -91 -208 52 -99 188 -109 252 -19 32
45 32 123 1 167 -38 53 -102 77 -162 60z"/>
<path d="M8171 3930 c-18 -5 -49 -24 -69 -43 -88 -89 -23 -247 102 -247 59 0
107 29 132 78 59 114 -40 240 -165 212z"/>
<path d="M3176 3339 c-34 -9 -72 -43 -92 -81 -46 -88 33 -208 136 -208 84 0
155 77 147 159 -10 94 -99 155 -191 130z"/>
<path d="M3742 3329 c-80 -40 -105 -145 -52 -219 62 -87 201 -75 248 20 63
129 -68 262 -196 199z"/>
<path d="M7277 3335 c-66 -23 -97 -68 -97 -141 0 -81 70 -148 148 -143 53 4
109 37 127 76 59 124 -51 253 -178 208z"/>
<path d="M7854 3331 c-48 -22 -69 -46 -81 -91 -19 -70 2 -124 67 -167 89 -61
220 10 220 119 0 114 -104 184 -206 139z"/>
<path d="M2863 2741 c-110 -51 -112 -205 -3 -262 107 -57 235 39 210 158 -22
99 -116 147 -207 104z"/>
<path d="M3455 2745 c-60 -25 -99 -97 -88 -161 7 -37 47 -90 81 -108 36 -19
112 -15 146 7 79 52 89 179 18 238 -41 34 -110 45 -157 24z"/>
<path d="M7553 2739 c-44 -22 -83 -82 -83 -129 0 -35 37 -106 65 -124 72 -48
177 -19 214 58 12 23 21 53 21 66 0 48 -39 108 -84 129 -53 26 -80 26 -133 0z"/>
<path d="M8143 2742 c-89 -47 -110 -163 -43 -232 39 -40 73 -52 129 -45 76 9
132 80 125 159 -10 100 -123 164 -211 118z"/>
<path d="M3145 2149 c-42 -26 -63 -58 -70 -104 -24 -152 178 -235 265 -109 38
57 32 143 -14 189 -45 45 -128 56 -181 24z"/>
<path d="M3742 2153 c-120 -59 -102 -238 28 -273 101 -27 193 50 184 155 -9
101 -121 163 -212 118z"/>
<path d="M7276 2160 c-81 -25 -123 -129 -82 -207 50 -98 198 -103 257 -10 29
46 23 136 -12 173 -43 48 -100 63 -163 44z"/>
<path d="M7840 2148 c-68 -47 -91 -116 -62 -190 16 -40 74 -79 124 -83 165
-13 221 217 69 281 -48 20 -93 17 -131 -8z"/>
<path d="M2870 1573 c-33 -12 -80 -68 -87 -102 -9 -49 -7 -64 12 -105 34 -72
123 -100 197 -62 108 54 108 204 1 260 -31 15 -92 20 -123 9z"/>
<path d="M3439 1559 c-47 -28 -71 -69 -71 -124 0 -151 197 -205 273 -76 76
129 -72 275 -202 200z"/>
<path d="M7545 1561 c-42 -25 -65 -63 -71 -119 -5 -39 -2 -53 18 -81 39 -57
73 -76 130 -74 80 3 137 56 145 134 11 114 -125 200 -222 140z"/>
<path d="M8140 1562 c-19 -9 -45 -33 -58 -52 -44 -65 -13 -179 58 -209 77 -34
160 -6 196 66 66 129 -66 261 -196 195z"/>
<path d="M3766 985 c-68 -23 -106 -75 -106 -142 0 -105 118 -177 213 -129 99
50 110 192 19 252 -40 26 -85 33 -126 19z"/>
<path d="M8081 989 c-74 -16 -121 -77 -116 -153 5 -84 62 -136 149 -136 114 0
182 129 120 227 -30 47 -97 74 -153 62z"/>
<path d="M3143 970 c-47 -28 -66 -64 -67 -125 -1 -65 21 -100 82 -131 46 -24
101 -20 147 10 88 58 79 202 -15 251 -41 21 -109 19 -147 -5z"/>
<path d="M7445 971 c-42 -25 -66 -65 -70 -114 -3 -49 10 -83 47 -119 33 -33
65 -42 124 -35 137 15 167 208 44 272 -40 21 -109 19 -145 -4z"/>
</g>
</svg>
